{
	"patcher" : 	{
		"fileversion" : 1,
		"appversion" : 		{
			"major" : 8,
			"minor" : 6,
			"revision" : 1,
			"architecture" : "x64",
			"modernui" : 1
		}
,
		"classnamespace" : "dsp.gen",
		"rect" : [ 34.0, 76.0, 1373.0, 743.0 ],
		"bglocked" : 0,
		"openinpresentation" : 0,
		"default_fontsize" : 12.0,
		"default_fontface" : 0,
		"default_fontname" : "Arial",
		"gridonopen" : 1,
		"gridsize" : [ 15.0, 15.0 ],
		"gridsnaponopen" : 1,
		"objectsnaponopen" : 1,
		"statusbarvisible" : 2,
		"toolbarvisible" : 1,
		"lefttoolbarpinned" : 0,
		"toptoolbarpinned" : 0,
		"righttoolbarpinned" : 0,
		"bottomtoolbarpinned" : 0,
		"toolbars_unpinned_last_save" : 0,
		"tallnewobj" : 0,
		"boxanimatetime" : 200,
		"enablehscroll" : 1,
		"enablevscroll" : 1,
		"devicewidth" : 0.0,
		"description" : "",
		"digest" : "",
		"tags" : "",
		"style" : "",
		"subpatcher_template" : "",
		"assistshowspatchername" : 0,
		"boxes" : [ 			{
				"box" : 				{
					"id" : "obj-2",
					"maxclass" : "newobj",
					"numinlets" : 0,
					"numoutlets" : 1,
					"outlettype" : [ "" ],
					"patching_rect" : [ 856.0, 218.0, 225.0, 22.0 ],
					"text" : "in 3 @comment \"Custom Glottal Source\""
				}

			}
, 			{
				"box" : 				{
					"id" : "obj-16",
					"maxclass" : "newobj",
					"numinlets" : 2,
					"numoutlets" : 1,
					"outlettype" : [ "" ],
					"patching_rect" : [ 100.0, 311.0, 29.5, 22.0 ],
					"text" : "*"
				}

			}
, 			{
				"box" : 				{
					"id" : "obj-15",
					"maxclass" : "newobj",
					"numinlets" : 1,
					"numoutlets" : 1,
					"outlettype" : [ "" ],
					"patching_rect" : [ 119.0, 282.0, 26.0, 22.0 ],
					"text" : "+ 1"
				}

			}
, 			{
				"box" : 				{
					"id" : "obj-14",
					"maxclass" : "newobj",
					"numinlets" : 0,
					"numoutlets" : 1,
					"outlettype" : [ "" ],
					"patching_rect" : [ 167.0, 217.0, 311.0, 22.0 ],
					"text" : "param vibratoAmount @default 0.01 @min 0 @max 0.05"
				}

			}
, 			{
				"box" : 				{
					"id" : "obj-13",
					"maxclass" : "newobj",
					"numinlets" : 2,
					"numoutlets" : 1,
					"outlettype" : [ "" ],
					"patching_rect" : [ 119.0, 251.0, 29.5, 22.0 ],
					"text" : "*"
				}

			}
, 			{
				"box" : 				{
					"id" : "obj-10",
					"maxclass" : "newobj",
					"numinlets" : 0,
					"numoutlets" : 1,
					"outlettype" : [ "" ],
					"patching_rect" : [ 119.0, 189.0, 200.0, 22.0 ],
					"text" : "param vibratoFrequency @default 5"
				}

			}
, 			{
				"box" : 				{
					"id" : "obj-7",
					"maxclass" : "newobj",
					"numinlets" : 1,
					"numoutlets" : 2,
					"outlettype" : [ "", "" ],
					"patching_rect" : [ 119.0, 217.0, 36.0, 22.0 ],
					"text" : "cycle"
				}

			}
, 			{
				"box" : 				{
					"id" : "obj-4",
					"maxclass" : "newobj",
					"numinlets" : 0,
					"numoutlets" : 1,
					"outlettype" : [ "" ],
					"patching_rect" : [ 534.0, 270.0, 192.0, 22.0 ],
					"text" : "in 2 @comment \"Aspiration Noise\""
				}

			}
, 			{
				"box" : 				{
					"id" : "obj-1",
					"maxclass" : "newobj",
					"numinlets" : 0,
					"numoutlets" : 1,
					"outlettype" : [ "" ],
					"patching_rect" : [ 100.0, 122.0, 225.0, 22.0 ],
					"text" : "param frequency @default 140 @min 20"
				}

			}
, 			{
				"box" : 				{
					"id" : "obj-11",
					"maxclass" : "newobj",
					"numinlets" : 1,
					"numoutlets" : 0,
					"patching_rect" : [ 978.0, 672.0, 35.0, 22.0 ],
					"text" : "out 3"
				}

			}
, 			{
				"box" : 				{
					"id" : "obj-5",
					"maxclass" : "newobj",
					"numinlets" : 2,
					"numoutlets" : 1,
					"outlettype" : [ "" ],
					"patching_rect" : [ 100.0, 339.0, 45.0, 22.0 ],
					"text" : "phasor"
				}

			}
, 			{
				"box" : 				{
					"id" : "obj-3",
					"maxclass" : "newobj",
					"numinlets" : 1,
					"numoutlets" : 0,
					"patching_rect" : [ 545.0, 672.0, 35.0, 22.0 ],
					"text" : "out 2"
				}

			}
, 			{
				"box" : 				{
					"id" : "obj-9",
					"maxclass" : "newobj",
					"numinlets" : 1,
					"numoutlets" : 0,
					"patching_rect" : [ 100.0, 672.0, 35.0, 22.0 ],
					"text" : "out 1"
				}

			}
, 			{
				"box" : 				{
					"code" : "Param tenseness(0.6, min=0, max=1);\r\nParam tensenessMult(1, min=0, max=1);\r\nParam tensenessExp(0, min=0, max=1);\r\nParam intensity(1, min=0, max=1);\r\n\r\nParam useCustomSource(0, min=0, max=1);\r\n\r\nHistory Te(0);\r\nHistory epsilon(0);\r\nHistory shift(0);\r\nHistory Delta(0);\r\nHistory E0(0);\r\nHistory alpha(0);\r\nHistory omega(0);\r\n\r\nHistory tenseTotal(0.6);\r\n\r\nt = in1;\r\nnoiseSource = in2;\r\ncustomSource = in3;\r\n\r\ntenseTotalNew = tensenessMult * tenseness;\r\ntenseTotal = tenseTotalNew + (1 - tenseTotalNew) * tensenessExp;\r\n\r\nRd = 3 * (1 - tenseTotal);\r\n\r\nif (Rd<0.5) Rd = 0.5;\r\nif (Rd>2.7) Rd = 2.7;\r\n\r\nRa = -0.01 + 0.048*Rd;\r\nRk = 0.224 + 0.118*Rd;\r\nRg = (Rk/4) * (0.5+1.2*Rk) / (0.11*Rd - Ra*(0.5 + 1.2*Rk));\r\n\r\nTa = Ra;\r\nTp = 1 / (2*Rg);\r\nTe = Tp + Tp*Rk; \r\n        \r\nepsilon = 1/Ta;\r\nshift = exp(-epsilon * (1-Te));\r\nDelta = 1 - shift; \r\n\r\nRHSIntegral = ((1/epsilon)*(shift - 1) + (1-Te)*shift) / Delta;\r\n\r\ntotalLowerIntegral = - (Te-Tp)/2 + RHSIntegral;\r\ntotalUpperIntegral = -totalLowerIntegral;\r\n        \r\nomega = PI/Tp;\r\ns = sin(omega*Te);\r\n\r\ny = -PI*s*totalUpperIntegral / (Tp*2);\r\n\r\nz = log(y);\r\nalpha = z/(Tp/2 - Te);\r\nE0 = -1 / (s*exp(alpha*Te));\r\n\r\noutput = 0;\r\n\r\nif (useCustomSource != 0) {\r\n\toutput = customSource;\r\n}\r\nelse if (t > Te) {\r\n\toutput = (-exp(-epsilon * (t-Te)) + shift) / Delta;\r\n}\r\nelse {\r\n\toutput = E0 * exp(alpha*t) * sin(omega * t);\r\n}\r\n     \r\nout1 = output * intensity * pow(tenseTotal, 0.25);\r\n\r\n//getNoiseModulator\r\nvoiced = 0.1 + 0.2 * max(0, sin(PI * 2 * t));\r\nnoiseModulator = tenseTotal * intensity * voiced + (1 - tenseTotal * intensity ) * 0.3;\r\n\r\naspiration = intensity * (1 - sqrt(tenseTotal)) * noiseModulator * noiseSource;\r\n\r\nout2 = aspiration;\r\n\r\nout3 = noiseModulator;",
					"fontface" : 0,
					"fontname" : "<Monospaced>",
					"fontsize" : 12.0,
					"id" : "obj-6",
					"maxclass" : "codebox",
					"numinlets" : 3,
					"numoutlets" : 3,
					"outlettype" : [ "", "", "" ],
					"patching_rect" : [ 100.0, 370.0, 909.0, 269.0 ]
				}

			}
 ],
		"lines" : [ 			{
				"patchline" : 				{
					"destination" : [ "obj-16", 0 ],
					"source" : [ "obj-1", 0 ]
				}

			}
, 			{
				"patchline" : 				{
					"destination" : [ "obj-7", 0 ],
					"source" : [ "obj-10", 0 ]
				}

			}
, 			{
				"patchline" : 				{
					"destination" : [ "obj-15", 0 ],
					"source" : [ "obj-13", 0 ]
				}

			}
, 			{
				"patchline" : 				{
					"destination" : [ "obj-13", 1 ],
					"source" : [ "obj-14", 0 ]
				}

			}
, 			{
				"patchline" : 				{
					"destination" : [ "obj-16", 1 ],
					"source" : [ "obj-15", 0 ]
				}

			}
, 			{
				"patchline" : 				{
					"destination" : [ "obj-5", 0 ],
					"source" : [ "obj-16", 0 ]
				}

			}
, 			{
				"patchline" : 				{
					"destination" : [ "obj-6", 2 ],
					"source" : [ "obj-2", 0 ]
				}

			}
, 			{
				"patchline" : 				{
					"destination" : [ "obj-6", 1 ],
					"source" : [ "obj-4", 0 ]
				}

			}
, 			{
				"patchline" : 				{
					"destination" : [ "obj-6", 0 ],
					"source" : [ "obj-5", 0 ]
				}

			}
, 			{
				"patchline" : 				{
					"destination" : [ "obj-11", 0 ],
					"source" : [ "obj-6", 2 ]
				}

			}
, 			{
				"patchline" : 				{
					"destination" : [ "obj-3", 0 ],
					"source" : [ "obj-6", 1 ]
				}

			}
, 			{
				"patchline" : 				{
					"destination" : [ "obj-9", 0 ],
					"source" : [ "obj-6", 0 ]
				}

			}
, 			{
				"patchline" : 				{
					"destination" : [ "obj-13", 0 ],
					"source" : [ "obj-7", 0 ]
				}

			}
 ]
	}

}
