{
	"patcher" : 	{
		"fileversion" : 1,
		"appversion" : 		{
			"major" : 8,
			"minor" : 6,
			"revision" : 1,
			"architecture" : "x64",
			"modernui" : 1
		}
,
		"classnamespace" : "dsp.gen",
		"rect" : [ 34.0, 76.0, 1373.0, 743.0 ],
		"bglocked" : 0,
		"openinpresentation" : 0,
		"default_fontsize" : 12.0,
		"default_fontface" : 0,
		"default_fontname" : "Arial",
		"gridonopen" : 1,
		"gridsize" : [ 15.0, 15.0 ],
		"gridsnaponopen" : 1,
		"objectsnaponopen" : 1,
		"statusbarvisible" : 2,
		"toolbarvisible" : 1,
		"lefttoolbarpinned" : 0,
		"toptoolbarpinned" : 0,
		"righttoolbarpinned" : 0,
		"bottomtoolbarpinned" : 0,
		"toolbars_unpinned_last_save" : 0,
		"tallnewobj" : 0,
		"boxanimatetime" : 200,
		"enablehscroll" : 1,
		"enablevscroll" : 1,
		"devicewidth" : 0.0,
		"description" : "",
		"digest" : "",
		"tags" : "",
		"style" : "",
		"subpatcher_template" : "",
		"assistshowspatchername" : 0,
		"boxes" : [ 			{
				"box" : 				{
					"id" : "obj-5",
					"maxclass" : "newobj",
					"numinlets" : 2,
					"numoutlets" : 1,
					"outlettype" : [ "" ],
					"patching_rect" : [ 100.0, 163.0, 45.0, 22.0 ],
					"text" : "phasor"
				}

			}
, 			{
				"box" : 				{
					"id" : "obj-4",
					"maxclass" : "newobj",
					"numinlets" : 0,
					"numoutlets" : 1,
					"outlettype" : [ "" ],
					"patching_rect" : [ 867.0, 130.0, 28.0, 22.0 ],
					"text" : "in 2"
				}

			}
, 			{
				"box" : 				{
					"id" : "obj-3",
					"maxclass" : "newobj",
					"numinlets" : 1,
					"numoutlets" : 0,
					"patching_rect" : [ 818.0, 517.0, 35.0, 22.0 ],
					"text" : "out 2"
				}

			}
, 			{
				"box" : 				{
					"id" : "obj-2",
					"maxclass" : "newobj",
					"numinlets" : 0,
					"numoutlets" : 1,
					"outlettype" : [ "" ],
					"patching_rect" : [ 100.0, 120.0, 28.0, 22.0 ],
					"text" : "in 1"
				}

			}
, 			{
				"box" : 				{
					"id" : "obj-9",
					"maxclass" : "newobj",
					"numinlets" : 1,
					"numoutlets" : 0,
					"patching_rect" : [ 150.0, 536.0, 35.0, 22.0 ],
					"text" : "out 1"
				}

			}
, 			{
				"box" : 				{
					"id" : "obj-8",
					"maxclass" : "newobj",
					"numinlets" : 0,
					"numoutlets" : 1,
					"outlettype" : [ "" ],
					"patching_rect" : [ 360.0, 79.0, 244.0, 22.0 ],
					"text" : "param intensity @default 1 @min 0 @max 1"
				}

			}
, 			{
				"box" : 				{
					"id" : "obj-1",
					"maxclass" : "newobj",
					"numinlets" : 0,
					"numoutlets" : 1,
					"outlettype" : [ "" ],
					"patching_rect" : [ 93.0, 79.0, 265.0, 22.0 ],
					"text" : "param tenseness @default 0.6 @min 0 @max 1"
				}

			}
, 			{
				"box" : 				{
					"code" : "\r\n\r\nt = in1;\r\nnoiseSource = in2;\r\n\r\nRd = 3 * (1 - tenseness);\r\n\r\nif (Rd<0.5) Rd = 0.5;\r\nif (Rd>2.7) Rd = 2.7;\r\n\r\nRa = -0.01 + 0.048*Rd;\r\nRk = 0.224 + 0.118*Rd;\r\nRg = (Rk/4) * (0.5+1.2*Rk) / (0.11*Rd - Ra*(0.5 + 1.2*Rk));\r\n\r\n\r\nTa = Ra;\r\nTp = 1 / (2*Rg);\r\nTe = Tp + Tp*Rk; \r\n        \r\nepsilon = 1/Ta;\r\nshift = exp(-epsilon * (1-Te));\r\nDelta = 1 - shift; \r\n\r\n\r\nRHSIntegral = ((1/epsilon)*(shift - 1) + (1-Te)*shift) / Delta;\r\n\r\ntotalLowerIntegral = - (Te-Tp)/2 + RHSIntegral;\r\ntotalUpperIntegral = -totalLowerIntegral;\r\n        \r\nomega = PI/Tp;\r\ns = sin(omega*Te);\r\n\r\ny = -PI*s*totalUpperIntegral / (Tp*2);\r\n\r\n\r\nz = log(y);\r\nalpha = z/(Tp/2 - Te);\r\nE0 = -1 / (s*exp(alpha*Te));\r\n\r\noutput = 0;\r\nif (t > Te) \r\n\toutput = (-exp(-epsilon * (t-Te)) + shift) / Delta;\r\n\t\r\nelse output = E0 * exp(alpha*t) * sin(omega * t);\r\n     \r\nout1 = output * intensity * pow(tenseness, 0.25);\r\n\r\n//getNoiseModulator\r\nvoiced = 0.1 + 0.2 * max(0, sin(PI * 2 * t));\r\nnoiseModulator = tenseness * intensity * voiced + (1 - tenseness * intensity ) * 0.3;\r\n\r\naspiration = intensity * (1 - sqrt(tenseness)) * noiseModulator * noiseSource;\r\n\r\nout2 = aspiration;",
					"fontface" : 0,
					"fontname" : "<Monospaced>",
					"fontsize" : 12.0,
					"id" : "obj-6",
					"maxclass" : "codebox",
					"numinlets" : 2,
					"numoutlets" : 2,
					"outlettype" : [ "", "" ],
					"patching_rect" : [ 100.0, 209.0, 909.0, 269.0 ]
				}

			}
 ],
		"lines" : [ 			{
				"patchline" : 				{
					"destination" : [ "obj-5", 0 ],
					"source" : [ "obj-2", 0 ]
				}

			}
, 			{
				"patchline" : 				{
					"destination" : [ "obj-6", 1 ],
					"source" : [ "obj-4", 0 ]
				}

			}
, 			{
				"patchline" : 				{
					"destination" : [ "obj-6", 0 ],
					"source" : [ "obj-5", 0 ]
				}

			}
, 			{
				"patchline" : 				{
					"destination" : [ "obj-3", 0 ],
					"source" : [ "obj-6", 1 ]
				}

			}
, 			{
				"patchline" : 				{
					"destination" : [ "obj-9", 0 ],
					"source" : [ "obj-6", 0 ]
				}

			}
 ]
	}

}
