{
	"patcher" : 	{
		"fileversion" : 1,
		"appversion" : 		{
			"major" : 8,
			"minor" : 6,
			"revision" : 1,
			"architecture" : "x64",
			"modernui" : 1
		}
,
		"classnamespace" : "dsp.gen",
		"rect" : [ 320.0, 196.0, 913.0, 591.0 ],
		"bglocked" : 0,
		"openinpresentation" : 0,
		"default_fontsize" : 12.0,
		"default_fontface" : 0,
		"default_fontname" : "Arial",
		"gridonopen" : 1,
		"gridsize" : [ 15.0, 15.0 ],
		"gridsnaponopen" : 1,
		"objectsnaponopen" : 1,
		"statusbarvisible" : 2,
		"toolbarvisible" : 1,
		"lefttoolbarpinned" : 0,
		"toptoolbarpinned" : 0,
		"righttoolbarpinned" : 0,
		"bottomtoolbarpinned" : 0,
		"toolbars_unpinned_last_save" : 0,
		"tallnewobj" : 0,
		"boxanimatetime" : 200,
		"enablehscroll" : 1,
		"enablevscroll" : 1,
		"devicewidth" : 0.0,
		"description" : "",
		"digest" : "",
		"tags" : "",
		"style" : "",
		"subpatcher_template" : "",
		"assistshowspatchername" : 0,
		"boxes" : [ 			{
				"box" : 				{
					"id" : "obj-2",
					"maxclass" : "newobj",
					"numinlets" : 1,
					"numoutlets" : 0,
					"patching_rect" : [ 556.0, 578.0, 35.0, 22.0 ],
					"text" : "out 2"
				}

			}
, 			{
				"box" : 				{
					"id" : "obj-3",
					"maxclass" : "newobj",
					"numinlets" : 1,
					"numoutlets" : 0,
					"patching_rect" : [ 100.0, 592.0, 35.0, 22.0 ],
					"text" : "out 1"
				}

			}
, 			{
				"box" : 				{
					"id" : "obj-14",
					"maxclass" : "comment",
					"numinlets" : 1,
					"numoutlets" : 0,
					"patching_rect" : [ 348.0, 77.0, 150.0, 20.0 ],
					"text" : "Aspiration noise"
				}

			}
, 			{
				"box" : 				{
					"id" : "obj-12",
					"linecount" : 2,
					"maxclass" : "comment",
					"numinlets" : 1,
					"numoutlets" : 0,
					"patching_rect" : [ 130.0, 70.0, 150.0, 34.0 ],
					"text" : "From phasor with frequency of voice"
				}

			}
, 			{
				"box" : 				{
					"id" : "obj-10",
					"maxclass" : "newobj",
					"numinlets" : 0,
					"numoutlets" : 1,
					"outlettype" : [ "" ],
					"patching_rect" : [ 100.0, 76.0, 28.0, 22.0 ],
					"text" : "in 1"
				}

			}
, 			{
				"box" : 				{
					"id" : "obj-9",
					"maxclass" : "comment",
					"numinlets" : 1,
					"numoutlets" : 0,
					"patching_rect" : [ 203.0, 141.0, 150.0, 20.0 ],
					"text" : "loudness = intensity^0.25"
				}

			}
, 			{
				"box" : 				{
					"code" : "//PT 840\r\nnormalizedLFWaveform(input, Te, epsilon, shift, Delta, E0, alpha, omega, intensity, loudness) {\r\n\toutput = 0;\r\n\r\n\tif (input > Te) {\r\n\t\toutput = (0 - exp(0 - epsilon * (input - Te)) + shift) / Delta;\r\n\t}\r\n\r\n\telse {\r\n\t\toutput = E0 * exp(alpha * input) * sin(omega * input);\r\n\t}\r\n\r\n\treturn output * intensity * loudness;\r\n}\r\n\r\ngetNoiseModulator(input, tenseness, intensity) {\r\n\tvoiced = 0.1 + 0.2 * max(0, sin(PI * 2 * input));\r\n    return tenseness * intensity * voiced + (1 - tenseness * intensity ) * 0.3;\r\n}\r\n\r\n//important timbral parameters for this voice\r\nParam intensity(1., min=0, max=1);\r\nParam tenseness(0.6, min=0, max=1);\r\nParam loudness(1, min=0, max=1);\n\r\n//param values received from setupWaveform (external to this patch)\r\nParam shift(0.);\nParam Te(0.);\nParam E0(0.);\nParam Delta(0.);\nParam omega(0.);\nParam alpha(0.);\nParam epsilon(0.);\r\n\r\n//PT 745-749\r\nrawSamp = normalizedLFWaveform(in1, Te, epsilon, shift, Delta, E0, alpha, omega, intensity, loudness);\r\nnoiseModulator = getNoiseModulator(in1, tenseness, intensity);\r\n\r\naspiration = intensity * (1 - sqrt(tenseness)) * noiseModulator * in2;\r\naspiration *= 0.2; //PLUS SOME PERLIN NOISE, EVENTUALLY\r\n\r\nout1 = rawSamp + aspiration;\r\nout2 = noiseModulator;",
					"fontface" : 0,
					"fontname" : "<Monospaced>",
					"fontsize" : 12.0,
					"id" : "obj-7",
					"maxclass" : "codebox",
					"numinlets" : 2,
					"numoutlets" : 2,
					"outlettype" : [ "", "" ],
					"patching_rect" : [ 100.0, 177.0, 525.0, 378.0 ]
				}

			}
, 			{
				"box" : 				{
					"id" : "obj-1",
					"maxclass" : "newobj",
					"numinlets" : 0,
					"numoutlets" : 1,
					"outlettype" : [ "" ],
					"patching_rect" : [ 318.0, 76.0, 28.0, 22.0 ],
					"text" : "in 2"
				}

			}
 ],
		"lines" : [ 			{
				"patchline" : 				{
					"destination" : [ "obj-7", 1 ],
					"source" : [ "obj-1", 0 ]
				}

			}
, 			{
				"patchline" : 				{
					"destination" : [ "obj-7", 0 ],
					"source" : [ "obj-10", 0 ]
				}

			}
, 			{
				"patchline" : 				{
					"destination" : [ "obj-2", 0 ],
					"source" : [ "obj-7", 1 ]
				}

			}
, 			{
				"patchline" : 				{
					"destination" : [ "obj-3", 0 ],
					"source" : [ "obj-7", 0 ]
				}

			}
 ]
	}

}
