{
	"patcher" : 	{
		"fileversion" : 1,
		"appversion" : 		{
			"major" : 8,
			"minor" : 6,
			"revision" : 1,
			"architecture" : "x64",
			"modernui" : 1
		}
,
		"classnamespace" : "dsp.gen",
		"rect" : [ 34.0, 76.0, 1373.0, 743.0 ],
		"bglocked" : 0,
		"openinpresentation" : 0,
		"default_fontsize" : 12.0,
		"default_fontface" : 0,
		"default_fontname" : "Arial",
		"gridonopen" : 1,
		"gridsize" : [ 15.0, 15.0 ],
		"gridsnaponopen" : 1,
		"objectsnaponopen" : 1,
		"statusbarvisible" : 2,
		"toolbarvisible" : 1,
		"lefttoolbarpinned" : 0,
		"toptoolbarpinned" : 0,
		"righttoolbarpinned" : 0,
		"bottomtoolbarpinned" : 0,
		"toolbars_unpinned_last_save" : 0,
		"tallnewobj" : 0,
		"boxanimatetime" : 200,
		"enablehscroll" : 1,
		"enablevscroll" : 1,
		"devicewidth" : 0.0,
		"description" : "",
		"digest" : "",
		"tags" : "",
		"style" : "",
		"subpatcher_template" : "",
		"assistshowspatchername" : 0,
		"boxes" : [ 			{
				"box" : 				{
					"id" : "obj-8",
					"maxclass" : "newobj",
					"numinlets" : 2,
					"numoutlets" : 1,
					"outlettype" : [ "" ],
					"patching_rect" : [ 100.0, 121.0, 29.5, 22.0 ],
					"text" : "*"
				}

			}
, 			{
				"box" : 				{
					"id" : "obj-1",
					"maxclass" : "newobj",
					"numinlets" : 0,
					"numoutlets" : 1,
					"outlettype" : [ "" ],
					"patching_rect" : [ 152.0, 73.0, 225.0, 22.0 ],
					"text" : "param frequency @default 140 @min 20"
				}

			}
, 			{
				"box" : 				{
					"id" : "obj-14",
					"maxclass" : "newobj",
					"numinlets" : 2,
					"numoutlets" : 1,
					"outlettype" : [ "" ],
					"patching_rect" : [ 879.0, 149.0, 81.0, 22.0 ],
					"text" : "scale 0 1 -1 1"
				}

			}
, 			{
				"box" : 				{
					"id" : "obj-13",
					"maxclass" : "newobj",
					"numinlets" : 1,
					"numoutlets" : 1,
					"outlettype" : [ "" ],
					"patching_rect" : [ 879.0, 125.0, 65.0, 22.0 ],
					"text" : "phasor 0.5"
				}

			}
, 			{
				"box" : 				{
					"id" : "obj-10",
					"maxclass" : "newobj",
					"numinlets" : 2,
					"numoutlets" : 2,
					"outlettype" : [ "", "" ],
					"patching_rect" : [ 879.0, 173.0, 130.0, 22.0 ],
					"text" : "lookup aspirationNoise"
				}

			}
, 			{
				"box" : 				{
					"id" : "obj-7",
					"maxclass" : "newobj",
					"numinlets" : 0,
					"numoutlets" : 2,
					"outlettype" : [ "", "" ],
					"patching_rect" : [ 613.0, 73.0, 125.0, 22.0 ],
					"text" : "buffer aspirationNoise"
				}

			}
, 			{
				"box" : 				{
					"id" : "obj-11",
					"maxclass" : "newobj",
					"numinlets" : 1,
					"numoutlets" : 0,
					"patching_rect" : [ 978.0, 507.0, 35.0, 22.0 ],
					"text" : "out 3"
				}

			}
, 			{
				"box" : 				{
					"id" : "obj-5",
					"maxclass" : "newobj",
					"numinlets" : 2,
					"numoutlets" : 1,
					"outlettype" : [ "" ],
					"patching_rect" : [ 100.0, 163.0, 45.0, 22.0 ],
					"text" : "phasor"
				}

			}
, 			{
				"box" : 				{
					"id" : "obj-3",
					"maxclass" : "newobj",
					"numinlets" : 1,
					"numoutlets" : 0,
					"patching_rect" : [ 545.0, 507.0, 35.0, 22.0 ],
					"text" : "out 2"
				}

			}
, 			{
				"box" : 				{
					"id" : "obj-2",
					"maxclass" : "newobj",
					"numinlets" : 0,
					"numoutlets" : 1,
					"outlettype" : [ "" ],
					"patching_rect" : [ 100.0, 73.0, 28.0, 22.0 ],
					"text" : "in 1"
				}

			}
, 			{
				"box" : 				{
					"id" : "obj-9",
					"maxclass" : "newobj",
					"numinlets" : 1,
					"numoutlets" : 0,
					"patching_rect" : [ 100.0, 507.0, 35.0, 22.0 ],
					"text" : "out 1"
				}

			}
, 			{
				"box" : 				{
					"code" : "Param tenseness(0.6, min=0, max=1);\r\nParam tensenessMult(1, min=0, max=1);\r\nParam intensity(0, min=0, max=1);\r\n\r\nHistory oldTenseness(0.6);\r\nHistory intensitySmooth(0);\r\n\r\nHistory Te(0);\r\nHistory epsilon(0);\r\nHistory shift(0);\r\nHistory Delta(0);\r\nHistory E0(0);\r\nHistory alpha(0);\r\nHistory omega(0);\r\n\r\nt = in1;\r\nnoiseSource = in2;\r\n\r\ntenseTotal = tenseness * tensenessMult;\r\n\r\nif (tenseTotal != oldTenseness || intensity != intensitySmooth) {\r\n\t\r\n\t\r\n\toldTenseness = tenseTotal;\r\n\t\r\n\tintensitySmooth = intensitySmooth*.99 + intensity*.01;\r\n\r\n\tRd = 3 * (1 - tenseTotal);\r\n\r\n\tif (Rd<0.5) Rd = 0.5;\r\n\tif (Rd>2.7) Rd = 2.7;\r\n\r\n\tRa = -0.01 + 0.048*Rd;\r\n\tRk = 0.224 + 0.118*Rd;\r\n\tRg = (Rk/4) * (0.5+1.2*Rk) / (0.11*Rd - Ra*(0.5 + 1.2*Rk));\r\n\r\n\tTa = Ra;\r\n\tTp = 1 / (2*Rg);\r\n\tTe = Tp + Tp*Rk; \r\n        \r\n\tepsilon = 1/Ta;\r\n\tshift = exp(-epsilon * (1-Te));\r\n\tDelta = 1 - shift; \r\n\r\n\tRHSIntegral = ((1/epsilon)*(shift - 1) + (1-Te)*shift) / Delta;\r\n\r\n\ttotalLowerIntegral = - (Te-Tp)/2 + RHSIntegral;\r\n\ttotalUpperIntegral = -totalLowerIntegral;\r\n        \r\n\tomega = PI/Tp;\r\n\ts = sin(omega*Te);\r\n\r\n\ty = -PI*s*totalUpperIntegral / (Tp*2);\r\n\r\n\tz = log(y);\r\n\talpha = z/(Tp/2 - Te);\r\n\tE0 = -1 / (s*exp(alpha*Te));\r\n}\r\n\r\noutput = 0;\r\n\r\nif (intensitySmooth == 0) {\r\n\toutput = 0;\r\n}\r\nelse if (t > Te) {\r\n\toutput = (-exp(-epsilon * (t-Te)) + shift) / Delta;\r\n}\r\nelse {\r\n\toutput = E0 * exp(alpha*t) * sin(omega * t);\r\n}\r\n     \r\nout1 = output * intensitySmooth * pow(tenseness, 0.25);\r\n\r\n//getNoiseModulator\r\nvoiced = 0.1 + 0.2 * max(0, sin(PI * 2 * t));\r\nnoiseModulator = tenseTotal * intensity * voiced + (1 - tenseTotal * intensitySmooth ) * 0.3;\r\n\r\naspiration = intensitySmooth * (1 - sqrt(tenseness)) * noiseModulator * noiseSource;\r\n\r\nout2 = aspiration;\r\n\r\nout3 = noiseModulator;",
					"fontface" : 0,
					"fontname" : "<Monospaced>",
					"fontsize" : 12.0,
					"id" : "obj-6",
					"maxclass" : "codebox",
					"numinlets" : 2,
					"numoutlets" : 3,
					"outlettype" : [ "", "", "" ],
					"patching_rect" : [ 100.0, 205.0, 909.0, 269.0 ]
				}

			}
 ],
		"lines" : [ 			{
				"patchline" : 				{
					"destination" : [ "obj-8", 1 ],
					"source" : [ "obj-1", 0 ]
				}

			}
, 			{
				"patchline" : 				{
					"destination" : [ "obj-6", 1 ],
					"source" : [ "obj-10", 0 ]
				}

			}
, 			{
				"patchline" : 				{
					"destination" : [ "obj-14", 0 ],
					"source" : [ "obj-13", 0 ]
				}

			}
, 			{
				"patchline" : 				{
					"destination" : [ "obj-10", 0 ],
					"source" : [ "obj-14", 0 ]
				}

			}
, 			{
				"patchline" : 				{
					"destination" : [ "obj-8", 0 ],
					"source" : [ "obj-2", 0 ]
				}

			}
, 			{
				"patchline" : 				{
					"destination" : [ "obj-6", 0 ],
					"source" : [ "obj-5", 0 ]
				}

			}
, 			{
				"patchline" : 				{
					"destination" : [ "obj-11", 0 ],
					"source" : [ "obj-6", 2 ]
				}

			}
, 			{
				"patchline" : 				{
					"destination" : [ "obj-3", 0 ],
					"source" : [ "obj-6", 1 ]
				}

			}
, 			{
				"patchline" : 				{
					"destination" : [ "obj-9", 0 ],
					"source" : [ "obj-6", 0 ]
				}

			}
, 			{
				"patchline" : 				{
					"destination" : [ "obj-5", 0 ],
					"source" : [ "obj-8", 0 ]
				}

			}
 ],
		"autosave" : 0
	}

}
