{
	"patcher" : 	{
		"fileversion" : 1,
		"appversion" : 		{
			"major" : 8,
			"minor" : 6,
			"revision" : 1,
			"architecture" : "x64",
			"modernui" : 1
		}
,
		"classnamespace" : "dsp.gen",
		"rect" : [ 34.0, 76.0, 1373.0, 743.0 ],
		"bglocked" : 0,
		"openinpresentation" : 0,
		"default_fontsize" : 12.0,
		"default_fontface" : 0,
		"default_fontname" : "Arial",
		"gridonopen" : 1,
		"gridsize" : [ 15.0, 15.0 ],
		"gridsnaponopen" : 1,
		"objectsnaponopen" : 1,
		"statusbarvisible" : 2,
		"toolbarvisible" : 1,
		"lefttoolbarpinned" : 0,
		"toptoolbarpinned" : 0,
		"righttoolbarpinned" : 0,
		"bottomtoolbarpinned" : 0,
		"toolbars_unpinned_last_save" : 0,
		"tallnewobj" : 0,
		"boxanimatetime" : 200,
		"enablehscroll" : 1,
		"enablevscroll" : 1,
		"devicewidth" : 0.0,
		"description" : "",
		"digest" : "",
		"tags" : "",
		"style" : "",
		"subpatcher_template" : "",
		"assistshowspatchername" : 0,
		"boxes" : [ 			{
				"box" : 				{
					"id" : "obj-3",
					"maxclass" : "newobj",
					"numinlets" : 1,
					"numoutlets" : 0,
					"patching_rect" : [ 603.0, 471.0, 35.0, 22.0 ],
					"text" : "out 2"
				}

			}
, 			{
				"box" : 				{
					"id" : "obj-2",
					"maxclass" : "newobj",
					"numinlets" : 0,
					"numoutlets" : 1,
					"outlettype" : [ "" ],
					"patching_rect" : [ 315.0, 21.0, 28.0, 22.0 ],
					"text" : "in 2"
				}

			}
, 			{
				"box" : 				{
					"id" : "obj-44",
					"maxclass" : "newobj",
					"numinlets" : 1,
					"numoutlets" : 0,
					"patching_rect" : [ 30.701754093170166, 486.842100620269775, 35.0, 22.0 ],
					"text" : "out 1"
				}

			}
, 			{
				"box" : 				{
					"id" : "obj-39",
					"maxclass" : "newobj",
					"numinlets" : 0,
					"numoutlets" : 1,
					"outlettype" : [ "" ],
					"patching_rect" : [ 647.368414878845215, 14.0, 28.0, 22.0 ],
					"text" : "in 3"
				}

			}
, 			{
				"box" : 				{
					"code" : "moveTowards(current, target, amountUp, amountDown) {\r\n    if (current < target) {\r\n\t\treturn min(current + amountUp, target);\r\n\t}\r\n    else {\r\n\t\treturn max(current-amountDown, target);\r\n\t}\r\n}\r\n\r\nParam n(44, min=30, max=44);\r\nParam noiseIntensity(1, min=0, max=1);\r\n\r\nParam movementSpeed(15, min=0);\r\nParam lipDiameter(1.5, min=0, max=1.5);\r\n\r\nHistory velumTarget(0.01);\r\n\r\nParam tongueIndex(12.9);\r\nParam tongueDiameter(2.43, min=2.05, max=3.5);\r\nParam constrictionIndex(0, min=0, max=44);\r\nParam constrictionDiameter(0);\r\n\r\nBuffer targetDiameter;\r\n\r\nData noseDiameter(28);\r\nData diameter(44);\r\n\r\nData R(44);\r\nData L(44);\r\nData A(44);\r\nData reflection(45);\r\nData newReflection(45);\r\nData junctionOutputR(45);\r\nData junctionOutputL(45);\r\n\r\nData noseL(28);\r\nData noseR(28);\r\nData noseA(28);\r\nData noseReflection(29);\r\nData noseJunctionOutputL(29);\r\nData noseJunctionOutputR(29);\r\n\r\nHistory reflectionLeft(0);\r\nHistory reflectionRight(0);\r\nHistory reflectionNose(0);\r\n\r\nHistory newReflectionLeft(0);\r\nHistory newReflectionRight(0);\r\nHistory newReflectionNose(0);\r\n\r\nData transients(44);\r\n\r\nHistory ciPrev;\r\nHistory cdPrev;\r\nHistory tiPrev;\r\nHistory tdPrev;\r\nHistory ldPrev;\r\n\r\nHistory oldN(0);\r\nHistory sampCount(0);\r\nHistory lastObstruction(-1);\r\n\r\nglottalOutput = in1;\r\nturbulenceNoise = in2;\r\nnoiseModulator = in3;\r\n\r\nbladeStart = floor(10 * n/44);\r\nlipStart = floor(39 * n/44);\r\ntipStart = floor(32 * n/44);\r\nnoseLength = floor(28 * n/44);\r\nnoseStart = n - noseLength + 1; \r\n\r\n//when constriction/tongue/lip position changes,\r\n//reshape targetDiameter\r\nif (constrictionIndex != ciPrev || constrictionDiameter != cdPrev ||\r\n\ttongueIndex != tiPrev || tongueDiameter != tdPrev ||\r\n\tlipDiameter != ldPrev) {\r\n\r\n\tfor (i=0; i < n; i+= 1) {\r\n\t\td = 0;\r\n\t\tif (i < 7*n/44-0.5) d = 0.6;\r\n\t\telse if (i<12 * n/44) d = 1.1;\r\n\t\telse d = 1.5;\r\n\t\t\r\n\t\ttargetDiameter.poke(d, i);\r\n\t}\r\n\r\n\t//inscribe tongue position\r\n\tfor (i = bladeStart; i < lipStart; i += 1) {\r\n\t\tt = 1.1 * PI * (tongueIndex - i)/(tipStart - bladeStart);\r\n\t\tfixedTongueDiameter = 2+(tongueDiameter-2)/1.5;\r\n\t\tcurve = (1.5-fixedTongueDiameter + 1.7)*cos(t);\r\n\t\tif (i == bladeStart-2 || i == lipStart-1) curve *= 0.8;\r\n\t\tif (i == bladeStart || i == lipStart-2) curve *= 0.94;               \r\n\t\ttargetDiameter.poke(1.5 - curve, i);\r\n\t}\r\n\r\n\t//inscribe lip constriction\r\n\tdia = lipDiameter;\r\n\tind = n - 2;\r\n\r\n\tif (dia<0) dia = 0;         \r\n\r\n\twidth = 5/44 * n;\r\n\r\n\tif (ind >= 2 && ind < n && dia < 3) {\r\n\t\tintIndex = round(ind);\r\n\t\tfor (i = -ceil(width)-1; i<width+1; i+= 1) {   \r\n\t\t\t//if (intIndex+i < 0 || intIndex+i >= n) continue;\r\n\t\t\trelpos = (intIndex+i) - ind;\r\n\t\t\trelpos = abs(relpos)-0.5;\r\n\t\t\r\n\t\t\tshrink = 0;\r\n\t\t\tif (relpos <= 0) shrink = 0;\r\n\t\t\telse if (relpos > width) shrink = 1;\r\n\t\t\telse shrink = 0.5*(1-cos(PI * relpos / width));\r\n\t\t\r\n\t\t\tif (dia < targetDiameter.peek(intIndex + i)) {\r\n\t\t\t\ttargetDiameter.poke(dia + (targetDiameter.peek(intIndex + i)-dia)*shrink, intIndex + i);\r\n\t\t\t}\r\n\t\t}\r\n\t}\r\n\r\n\t//inscribe constriction\r\n\tif (constrictionDiameter >= -0.85 - 0.8) {\r\n\r\n\t\tdia = constrictionDiameter - 0.3;\r\n\t\tind = constrictionIndex - 1;\r\n\r\n\t\tif (dia<0) dia = 0;         \r\n\r\n\t\twidth = 2;\r\n\t\tif (ind < 25) width = 10;\r\n\t\telse if (ind >= tipStart) width= 5;\r\n\t\telse width = 10 - 5*(ind-25)/(tipStart-25);\r\n\t\r\n\t\tif (ind >= 2 && ind < n && dia < 3) {\r\n\t\t\tintIndex = round(ind);\r\n\t\t\tfor (i = -ceil(width) - 1; i < width+1; i += 1) {   \r\n\t\t\t\trelpos = (intIndex+i) - ind;\r\n\t\t\t\trelpos = abs(relpos)-0.5;\r\n\t\t\t\t\r\n\t\t\t\tshrink = 0;\r\n\t\t\t\tif (relpos <= 0) shrink = 0;\r\n\t\t\t\telse if (relpos > width) shrink = 1;\r\n\t\t\t\telse shrink = 0.5*(1-cos(PI * relpos / width));\r\n\t\t\t\r\n\t\t\t\tif (dia < targetDiameter.peek(intIndex+i)) {\r\n\t\t\t\t\ttargetDiameter.poke(dia + (targetDiameter.peek(intIndex+i)-dia)*shrink, intIndex + i);\r\n\t\t\t\t}\r\n\t\t\t}\r\n\t\t}\r\n\t}\r\n\r\n\t//update prev values\r\n\tciPrev = constrictionIndex;\r\n\tcdPrev = constrictionDiameter;\r\n\ttiPrev = tongueIndex;\r\n\ttdPrev = tongueDiameter;\r\n\tldPrev = lipDiameter;\r\n\t\r\n\tout2 = 1;\r\n\t\r\n}\r\n\r\n//init() (only when N changes)\r\nif (oldN != n) {\r\n\r\n\tfor (i = 0; i < noseLength; i += 1) {\r\n    \tdia = 0;\r\n    \td = 2 * (i / noseLength);\r\n    \tif (d < 1) {\r\n\t\t\tdia = 0.4 + 1.6 * d;\r\n\t\t}\r\n\t\telse {\r\n\t\t\tdia = 0.5 + 1.5 * (2 - d);\r\n\t\t}\r\n    \tdia = min(dia, 1.9);\r\n    \tnoseDiameter.poke(dia, i);\r\n\r\n\t}   \r\n\r\n\t//calculateReflections\r\n\tfor (i = 0; i < n; i += 1) {\r\n\t\tA.poke(diameter.peek(i) * diameter.peek(i), i);\r\n\t}\r\n\t\r\n\tfor (i = 1; i < n; i += 1)\r\n    {\r\n        //this.reflection[i] = this.newReflection[i];\r\n\t\treflection.poke(newReflection.peek(i), i);\r\n\t\t\r\n        //if (this.A[i] == 0) this.newReflection[i] = 0.999; //to prevent some bad behaviour if 0\r\n        //else this.newReflection[i] = (this.A[i-1]-this.A[i]) / (this.A[i-1]+this.A[i]); \r\n\t\tif (A.peek(i) == 0) {\r\n\t\t\tnewReflection.poke(0.999, i);\r\n\t\t}\r\n\t\telse {\r\n\t\t\tnewReflection.poke(( A.peek(i-1) - A.peek(i) ) / ( A.peek(i-1) + A.peek(i) ), i);\r\n\t\t}\r\n    }\r\n\r\n\treflectionLeft = newReflectionLeft;\r\n\treflectionRight = newReflectionRight;\r\n\treflectionNose = newReflectionNose;\r\n\t\r\n\t//var sum = this.A[this.noseStart]+this.A[this.noseStart+1]+this.noseA[0];\t\r\n\tsum = A.peek(noseStart) + A.peek(noseStart + 1) + noseA.peek(0);\r\n\t\r\n\t\r\n    //this.newReflectionLeft = (2*this.A[this.noseStart]-sum)/sum;\r\n\tnewReflectionLeft = (2 * A.peek(noseStart) - sum) / sum;\r\n\r\n    //this.newReflectionRight = (2*this.A[this.noseStart+1]-sum)/sum;   \r\n\tnewReflectionRight = (2 * A.peek(noseStart + 1) - sum) / sum;\r\n\r\n    //this.newReflectionNose = (2*this.noseA[0]-sum)/sum;    \r\n\tnewReflectionNose = (2 * noseA.peek(0) - sum) / sum;\r\n\t\r\n\t//calculateNoseReflections\r\n\t\r\n\tfor (i = 0; i < noseLength; i += 1) {\r\n\t\t// this.noseA[i] = this.noseDiameter[i]*this.noseDiameter[i]; \r\n\t\tnoseA.poke(noseDiameter.peek(i) * noseDiameter.peek(i), i);\r\n\t}\r\n\tfor (i = 1; i < noseLength; i += 1) {\r\n\t\t//this.noseReflection[i] = (this.noseA[i-1]-this.noseA[i]) / (this.noseA[i-1]+this.noseA[i]); \r\n\t\tnoseReflection.poke(( noseA.peek(i-1) - noseA.peek(i) ) / ( noseA.peek(i-1) + noseA.peek(i) ), i);\r\n\t}\r\n\t\r\n\tnoseDiameter.poke(velumTarget, 0);\t\r\n}\r\n\r\n\r\n//runStep (happens twice, once with lambda 0 and once with lambda 0.5)\r\n//\tthis is because blockLength is effectively 1\r\n\r\nvocalOutput = 0;\r\n\r\nfor (lambda = 0; glottalOutput != 0 && lambda < 1; lambda += .5) {\r\n\t\t\r\n\t\t\t\t\r\n\t//processTransients()\r\n\t//transients buffer sample indexes are tract diameter indexes\r\n\t//sample values are remaining time (if any) of transient at that index\r\n\t//(current time alive = lifetime - sample value)\r\n\t\r\n\t//remove transients array, use transient history\r\n\t\r\n\tfor (i = 0; i < n; i+= 1) {\r\n\t\tval = transients.peek(i);\r\n\t\tif (val > 0) {\r\n\t\t\tamplitude = 0.3 * pow(2, -200 * (0.2 - val));\r\n\t\t\t\r\n\t\t\tR.poke(R.peek(i) + amplitude/2, i);\r\n\t\t\tL.poke(L.peek(i) + amplitude/2, i);\r\n\r\n\t\t\ttransients.poke(val - 1.0/(samplerate*2), i);\r\n\t\t}\r\n\t}\r\n\t\r\n\t\r\n\t//addTurbulenceNoise\r\n\ti = round(constrictionIndex); d = constrictionDiameter;\r\n\t\t\t\t\t\r\n\t\tnoise = 0.66 * turbulenceNoise * noiseModulator * noiseIntensity; //noiseIntensity\r\n\t\t\t\t\t\t\t\r\n\t\tthinness0 = clamp(8 * (0.7 - d), 0, 1);\r\n\t\topenness = clamp(30 * (d - 0.3), 0, 1);\r\n\t\tnoise0 = noise * thinness0 * openness;\r\n\t\t//no noise1 because delta is always 0\r\n\t\t\t\r\n\t\tR.poke(R.peek(i+1) + noise0/2, i+1);\r\n\t\tL.poke(L.peek(i+1) + noise0/2, i+1);\r\n\t\r\n\t\r\n\t//1000 this.junctionOutputR[0] = this.L[0] * this.glottalReflection + glottalOutput;\r\n\tjunctionOutputR.poke(L.peek(0) * 0.75 + glottalOutput, 0);\r\n\r\n\t//1001 this.junctionOutputL[this.n] = this.R[this.n-1] * this.lipReflection; \r\n\tjunctionOutputL.poke(R.peek(n-1) * -0.85, n);\r\n\t\t\r\n\tfor (i = 1; i < n; i += 1) { //1003\r\n\t\t\r\n\t\trVal = R.peek(i-1);\r\n\t\tlVal = L.peek(i);\r\n\t\r\n\t\t//1005 var r = this.reflection[i] * (1-lambda) + this.newReflection[i]*lambda;\r\n\t\tr = reflection.peek(i) * (1-lambda) + newReflection.peek(i) * lambda;\r\n\t\r\n\t\t//1006 var w = r * (this.R[i-1] + this.L[i]);\r\n\t\tw = r * (rVal + lVal);\r\n\t\r\n\t\t//1007 this.junctionOutputR[i] = this.R[i-1] - w;\r\n\t\tjunctionOutputR.poke(rVal - w, i);\r\n\t\r\n\t\t//1008 this.junctionOutputL[i] = this.L[i] + w;\r\n\t\tjunctionOutputL.poke(lVal + w, i);\r\n\t}\r\n\t\r\n\ti = noseStart;\r\n\t\r\n\tvR = R.peek(i-1);\r\n\tvL = L.peek(i);\r\n\tvNL = noseL.peek(0);\r\n\r\n\t//1013 var r = this.newReflectionLeft * (1-lambda) + this.reflectionLeft*lambda;\r\n\tr = newReflectionLeft * (1-lambda) + reflectionLeft * lambda;\r\n\r\n\t//1014 this.junctionOutputL[i] = r*this.R[i-1]+(1+r)*(this.noseL[0]+this.L[i]);\r\n\tjunctionOutputL.poke(r * vR + (1+r) * (vNL + vL), i);\r\n\r\n\t//1015 r = this.newReflectionRight * (1-lambda) + this.reflectionRight*lambda;\r\n\tr = newReflectionRight * (1-lambda) + reflectionRight * lambda;\r\n\r\n\t//1016 this.junctionOutputR[i] = r*this.L[i]+(1+r)*(this.R[i-1]+this.noseL[0]);     \r\n\tjunctionOutputR.poke(r * vL + (1+r) * (vR + vNL), i);\r\n\r\n\t//1017 r = this.newReflectionNose * (1-lambda) + this.reflectionNose*lambda;\r\n\tr = newReflectionNose * (1-lambda) + reflectionNose * lambda;\r\n\r\n\t//1018 this.noseJunctionOutputR[0] = r*this.noseL[0]+(1+r)*(this.L[i]+this.R[i-1]);\r\n\tnoseJunctionOutputR.poke(r * vNL + (1+r) * (vL + vR), 0);\r\n\r\n\tfor (i = 0; i < n; i += 1) { //1019\r\n\t\r\n\t\t//1021 this.R[i] = this.junctionOutputR[i]*0.999;\r\n\t\tR.poke(junctionOutputR.peek(i) * 0.999, i);\r\n\t\r\n    \t//1022 this.L[i] = this.junctionOutputL[i+1]*0.999; \r\n\t\tL.poke(junctionOutputL.peek(i+1) * 0.999, i);\r\n\t}\r\n\t\r\n\tvocalOutput += R.peek(n - 1);\r\n\r\n\t//1039 this.noseJunctionOutputL[this.noseLength] = this.noseR[this.noseLength-1] * this.lipReflection; \r\n\tnoseJunctionOutputL.poke(noseR.peek(noseLength - 1) * -0.85, noseLength);\r\n\r\n\tfor (i = 1; i < noseLength; i += 1) {\r\n\t\t\r\n\t\tnR = noseR.peek(i-1);\r\n\t\tnL = noseL.peek(i);\r\n\t\t\r\n\t\t//1043 var w = this.noseReflection[i] * (this.noseR[i-1] + this.noseL[i]);\r\n\t\tw = noseReflection.peek(i) * (nR + nL);\r\n\t\r\n\t\t//1044 this.noseJunctionOutputR[i] = this.noseR[i-1] - w;\r\n\t\tnoseJunctionOutputR.poke(nR - w, i);\r\n\t\r\n\t\t//1045 this.noseJunctionOutputL[i] = this.noseL[i] + w;\r\n\t\tnoseJunctionOutputL.poke(nL + w, i);\r\n\t}\r\n\t\r\n\tfor (i = 0; i < noseLength; i += 1) {\r\n\t\r\n\t\t//1050 this.noseR[i] = this.noseJunctionOutputR[i] * this.fade; \r\n\t\tnoseR.poke(noseJunctionOutputR.peek(i), i);\r\n\t\r\n\t\t//1051 this.noseL[i] = this.noseJunctionOutputL[i+1] * this.fade;   \r\n\t\tnoseL.poke(noseJunctionOutputL.peek(i+1), i);\t\r\n\t}\r\n\r\n\tvocalOutput += noseR.peek(noseLength-1);\t\r\n}\r\n\r\n\r\n//finishBlock\r\n\r\nblockLength = 64;\r\n\r\nif (sampCount % blockLength == 0) {\r\n\t\r\n\t//reshapeTract\r\n\t\r\n\t//var amount = blockLength/AudioSystem.get(\"sampleRate\") * tractParams.get(\"movementSpeed\");\r\n\tamount = blockLength / samplerate * movementSpeed; //blockLength/sampleRate\r\n\t\r\n\tnewLastObstruction = -1;\r\n\t\r\n\tfor (i = 0; i < n; i += 1) {\r\n\t\td = diameter.peek(i);\r\n\t\ttd = targetDiameter.peek(i);\r\n\t\tif (d <= 0.05) {\r\n\t\t\tnewLastObstruction = i;\r\n\t\t}\r\n\t\tslowReturn = 0;\r\n\t\tif (i < noseStart) {\r\n\t\t\tslowReturn = 0.6;\r\n\t\t}\r\n\t\telse if (i >= tipStart) {\r\n\t\t\tslowReturn = 1.0; \r\n\t\t}\r\n\t\telse {\r\n\t\t\tslowReturn = 0.6 + 0.4*(i-noseStart) / (tipStart-noseStart);\r\n\t\t}\r\n\t\t\r\n\t\tnewVal = moveTowards(d, td, slowReturn*amount, 2*amount);\t\t\r\n\t\tdiameter.poke(newVal, i);\r\n\t}\r\n\t\r\n\t//out2 = newLastObstruction;\r\n\t\t\r\n\tif (lastObstruction != -1 && newLastObstruction == -1 && noseA.peek(0) < 0.05) {\r\n\t\ttransients.poke(.2, lastObstruction);\r\n\t\tout2 = lastObstruction;\r\n\t}\r\n\t\r\n\tlastObstruction = newLastObstruction;\r\n\t\t\r\n\tnoseDiameter.poke(moveTowards(noseDiameter.peek(0), velumTarget, \r\n        amount*0.25, amount*0.1), 0);\r\n\r\n\tnoseA.poke(pow(noseDiameter.peek(0), 2), 0); \r\n\t\r\n\t//calculatereflections\r\n\t\r\n\tfor (i = 0; i < n; i+= 1) {\r\n\t\tA.poke(diameter.peek(i) * diameter.peek(i), i);\r\n\t}\r\n\t\r\n\tfor (i = 1; i < n; i += 1)\r\n    {\r\n        //this.reflection[i] = this.newReflection[i];\r\n\t\treflection.poke(newReflection.peek(i), i);\r\n\t\t\r\n        //if (this.A[i] == 0) this.newReflection[i] = 0.999; //to prevent some bad behaviour if 0\r\n        //else this.newReflection[i] = (this.A[i-1]-this.A[i]) / (this.A[i-1]+this.A[i]); \r\n\t\tif (A.peek(i) == 0) {\r\n\t\t\tnewReflection.poke(0.999, i);\r\n\t\t}\r\n\t\telse {\r\n\t\t\tnewReflection.poke(( A.peek(i-1) - A.peek(i) ) / ( A.peek(i-1) + A.peek(i) ), i);\r\n\t\t}\r\n    }\r\n\r\n\treflectionLeft = newReflectionLeft;\r\n\treflectionRight = newReflectionRight;\r\n\treflectionNose = newReflectionNose;\r\n\t\r\n\t//var sum = this.A[this.noseStart]+this.A[this.noseStart+1]+this.noseA[0];\t\r\n\tsum = A.peek(noseStart) + A.peek(noseStart + 1) + noseA.peek(0);\r\n\t\r\n    //this.newReflectionLeft = (2*this.A[this.noseStart]-sum)/sum;\r\n\tnewReflectionLeft = (2 * A.peek(noseStart) - sum) / sum;\r\n\r\n    //this.newReflectionRight = (2*this.A[this.noseStart+1]-sum)/sum;   \r\n\tnewReflectionRight = (2 * A.peek(noseStart + 1) - sum) / sum;\r\n\r\n    //this.newReflectionNose = (2*this.noseA[0]-sum)/sum;  \r\n\tnewReflectionNose = (2 * noseA.peek(0) - sum) / sum;\r\n}\r\n\r\n\r\noldN = n;\r\n\r\nsampCount = sampCount + 1;\r\n\r\nout1 = vocalOutput / 8;\r\n",
					"fontface" : 0,
					"fontname" : "<Monospaced>",
					"fontsize" : 12.0,
					"id" : "obj-9",
					"maxclass" : "codebox",
					"numinlets" : 3,
					"numoutlets" : 2,
					"outlettype" : [ "", "" ],
					"patching_rect" : [ 30.927836894989014, 112.371140718460083, 688.659834861755371, 274.226820468902588 ]
				}

			}
, 			{
				"box" : 				{
					"id" : "obj-1",
					"maxclass" : "newobj",
					"numinlets" : 0,
					"numoutlets" : 1,
					"outlettype" : [ "" ],
					"patching_rect" : [ 50.0, 14.0, 28.0, 22.0 ],
					"text" : "in 1"
				}

			}
 ],
		"lines" : [ 			{
				"patchline" : 				{
					"destination" : [ "obj-9", 0 ],
					"source" : [ "obj-1", 0 ]
				}

			}
, 			{
				"patchline" : 				{
					"destination" : [ "obj-9", 1 ],
					"source" : [ "obj-2", 0 ]
				}

			}
, 			{
				"patchline" : 				{
					"destination" : [ "obj-9", 2 ],
					"source" : [ "obj-39", 0 ]
				}

			}
, 			{
				"patchline" : 				{
					"destination" : [ "obj-3", 0 ],
					"source" : [ "obj-9", 1 ]
				}

			}
, 			{
				"patchline" : 				{
					"destination" : [ "obj-44", 0 ],
					"source" : [ "obj-9", 0 ]
				}

			}
 ]
	}

}
